<mxfile host="app.diagrams.net" agent="Mozilla/5.0 (Windows NT 10.0; Win64; x64) AppleWebKit/537.36 (KHTML, like Gecko) Chrome/129.0.0.0 Safari/537.36" version="24.7.17">
  <diagram name="Page-1" id="9OeioXdUckUfvhsBceJ4">
    <mxGraphModel grid="1" page="1" gridSize="10" guides="1" tooltips="1" connect="1" arrows="1" fold="1" pageScale="1" pageWidth="850" pageHeight="1100" math="0" shadow="0">
      <root>
        <mxCell id="0" />
        <mxCell id="1" parent="0" />
        <mxCell id="77gvNgRuPgGpvcpfS8tz-34" value="" style="rounded=0;whiteSpace=wrap;html=1;" vertex="1" parent="1">
          <mxGeometry x="1370" y="340" width="190" height="140" as="geometry" />
        </mxCell>
        <mxCell id="77gvNgRuPgGpvcpfS8tz-33" value="" style="rounded=0;whiteSpace=wrap;html=1;" vertex="1" parent="1">
          <mxGeometry x="820" y="10" width="520" height="510" as="geometry" />
        </mxCell>
        <mxCell id="77gvNgRuPgGpvcpfS8tz-31" value="" style="rounded=0;whiteSpace=wrap;html=1;" vertex="1" parent="1">
          <mxGeometry x="475" y="210" width="325" height="260" as="geometry" />
        </mxCell>
        <mxCell id="77gvNgRuPgGpvcpfS8tz-28" value="" style="rounded=0;whiteSpace=wrap;html=1;" vertex="1" parent="1">
          <mxGeometry x="-10" y="80" width="470" height="400" as="geometry" />
        </mxCell>
        <mxCell id="77gvNgRuPgGpvcpfS8tz-2" value="Konfirmasi Data Pendaftaran" style="rounded=1;whiteSpace=wrap;html=1;" vertex="1" parent="1">
          <mxGeometry x="110" y="130" width="190" height="50" as="geometry" />
        </mxCell>
        <mxCell id="77gvNgRuPgGpvcpfS8tz-3" value="Verifikasi Pendaftaran" style="rounded=1;whiteSpace=wrap;html=1;" vertex="1" parent="1">
          <mxGeometry x="10" y="350" width="150" height="50" as="geometry" />
        </mxCell>
        <mxCell id="77gvNgRuPgGpvcpfS8tz-4" value="Memberikan Konfirmasi Pendaftaran" style="rounded=1;whiteSpace=wrap;html=1;" vertex="1" parent="1">
          <mxGeometry x="190" y="350" width="240" height="50" as="geometry" />
        </mxCell>
        <mxCell id="77gvNgRuPgGpvcpfS8tz-5" value="Verifikasi Pendaftaran" style="rounded=1;whiteSpace=wrap;html=1;" vertex="1" parent="1">
          <mxGeometry x="520" y="240" width="150" height="50" as="geometry" />
        </mxCell>
        <mxCell id="77gvNgRuPgGpvcpfS8tz-6" value="Memberikan Pesan Kesalahan" style="rounded=1;whiteSpace=wrap;html=1;" vertex="1" parent="1">
          <mxGeometry x="590" y="390" width="200" height="50" as="geometry" />
        </mxCell>
        <mxCell id="77gvNgRuPgGpvcpfS8tz-7" value="Mengisi Formulir Pendaftaran" style="rounded=1;whiteSpace=wrap;html=1;" vertex="1" parent="1">
          <mxGeometry x="970" y="60" width="190" height="50" as="geometry" />
        </mxCell>
        <mxCell id="77gvNgRuPgGpvcpfS8tz-8" value="Submit Pendaftaran" style="rounded=1;whiteSpace=wrap;html=1;" vertex="1" parent="1">
          <mxGeometry x="920" y="300" width="150" height="50" as="geometry" />
        </mxCell>
        <mxCell id="77gvNgRuPgGpvcpfS8tz-9" value="Memberikan Konfirmasi Pendaftaran" style="rounded=1;whiteSpace=wrap;html=1;" vertex="1" parent="1">
          <mxGeometry x="830" y="460" width="240" height="50" as="geometry" />
        </mxCell>
        <mxCell id="77gvNgRuPgGpvcpfS8tz-10" value="Menerima Konfirmasi Pembayaran" style="rounded=1;whiteSpace=wrap;html=1;" vertex="1" parent="1">
          <mxGeometry x="1090" y="460" width="240" height="50" as="geometry" />
        </mxCell>
        <mxCell id="77gvNgRuPgGpvcpfS8tz-11" value="Melakukan Pembayaran" style="rounded=1;whiteSpace=wrap;html=1;" vertex="1" parent="1">
          <mxGeometry x="1135" y="300" width="150" height="50" as="geometry" />
        </mxCell>
        <mxCell id="77gvNgRuPgGpvcpfS8tz-12" value="Konfirmasi Pembayaran" style="rounded=1;whiteSpace=wrap;html=1;" vertex="1" parent="1">
          <mxGeometry x="1390" y="380" width="150" height="50" as="geometry" />
        </mxCell>
        <mxCell id="77gvNgRuPgGpvcpfS8tz-13" value="" style="endArrow=classic;html=1;rounded=0;exitX=0.469;exitY=1.032;exitDx=0;exitDy=0;exitPerimeter=0;entryX=0;entryY=0.5;entryDx=0;entryDy=0;" edge="1" parent="1" source="77gvNgRuPgGpvcpfS8tz-2" target="77gvNgRuPgGpvcpfS8tz-5">
          <mxGeometry width="50" height="50" relative="1" as="geometry">
            <mxPoint x="290" y="320" as="sourcePoint" />
            <mxPoint x="470" y="280" as="targetPoint" />
            <Array as="points">
              <mxPoint x="200" y="265" />
            </Array>
          </mxGeometry>
        </mxCell>
        <mxCell id="77gvNgRuPgGpvcpfS8tz-14" value="Data Valid" style="edgeLabel;html=1;align=center;verticalAlign=middle;resizable=0;points=[];" connectable="0" vertex="1" parent="77gvNgRuPgGpvcpfS8tz-13">
          <mxGeometry x="-0.7436" y="-1" relative="1" as="geometry">
            <mxPoint as="offset" />
          </mxGeometry>
        </mxCell>
        <mxCell id="77gvNgRuPgGpvcpfS8tz-15" value="" style="endArrow=classic;html=1;rounded=0;entryX=1;entryY=0.458;entryDx=0;entryDy=0;exitX=0.333;exitY=1.016;exitDx=0;exitDy=0;exitPerimeter=0;entryPerimeter=0;" edge="1" parent="1" source="77gvNgRuPgGpvcpfS8tz-5" target="77gvNgRuPgGpvcpfS8tz-4">
          <mxGeometry width="50" height="50" relative="1" as="geometry">
            <mxPoint x="370" y="350" as="sourcePoint" />
            <mxPoint x="420" y="300" as="targetPoint" />
            <Array as="points">
              <mxPoint x="500" y="350" />
            </Array>
          </mxGeometry>
        </mxCell>
        <mxCell id="77gvNgRuPgGpvcpfS8tz-17" value="Verifikasi Berhasil" style="edgeLabel;html=1;align=center;verticalAlign=middle;resizable=0;points=[];" connectable="0" vertex="1" parent="77gvNgRuPgGpvcpfS8tz-15">
          <mxGeometry x="-0.3674" relative="1" as="geometry">
            <mxPoint as="offset" />
          </mxGeometry>
        </mxCell>
        <mxCell id="77gvNgRuPgGpvcpfS8tz-16" value="" style="endArrow=classic;html=1;rounded=0;entryX=0.541;entryY=0.05;entryDx=0;entryDy=0;entryPerimeter=0;exitX=0.547;exitY=1.033;exitDx=0;exitDy=0;exitPerimeter=0;" edge="1" parent="1" source="77gvNgRuPgGpvcpfS8tz-5" target="77gvNgRuPgGpvcpfS8tz-6">
          <mxGeometry width="50" height="50" relative="1" as="geometry">
            <mxPoint x="560" y="300" as="sourcePoint" />
            <mxPoint x="640" y="410" as="targetPoint" />
            <Array as="points">
              <mxPoint x="660" y="320" />
            </Array>
          </mxGeometry>
        </mxCell>
        <mxCell id="77gvNgRuPgGpvcpfS8tz-18" value="Verifikasi Gagal" style="edgeLabel;html=1;align=center;verticalAlign=middle;resizable=0;points=[];" connectable="0" vertex="1" parent="77gvNgRuPgGpvcpfS8tz-16">
          <mxGeometry x="-0.1872" y="1" relative="1" as="geometry">
            <mxPoint as="offset" />
          </mxGeometry>
        </mxCell>
        <mxCell id="77gvNgRuPgGpvcpfS8tz-19" value="" style="endArrow=classic;html=1;rounded=0;entryX=1.001;entryY=0.605;entryDx=0;entryDy=0;entryPerimeter=0;exitX=-0.003;exitY=0.593;exitDx=0;exitDy=0;exitPerimeter=0;" edge="1" parent="1" source="77gvNgRuPgGpvcpfS8tz-4" target="77gvNgRuPgGpvcpfS8tz-3">
          <mxGeometry width="50" height="50" relative="1" as="geometry">
            <mxPoint x="150" y="410" as="sourcePoint" />
            <mxPoint x="200" y="360" as="targetPoint" />
          </mxGeometry>
        </mxCell>
        <mxCell id="77gvNgRuPgGpvcpfS8tz-20" value="" style="endArrow=classic;html=1;rounded=0;entryX=1;entryY=0.58;entryDx=0;entryDy=0;exitX=0.58;exitY=1.011;exitDx=0;exitDy=0;exitPerimeter=0;entryPerimeter=0;" edge="1" parent="1" source="77gvNgRuPgGpvcpfS8tz-7" target="77gvNgRuPgGpvcpfS8tz-2">
          <mxGeometry width="50" height="50" relative="1" as="geometry">
            <mxPoint x="970" y="190" as="sourcePoint" />
            <mxPoint x="670" y="180" as="targetPoint" />
            <Array as="points">
              <mxPoint x="1080" y="160" />
            </Array>
          </mxGeometry>
        </mxCell>
        <mxCell id="77gvNgRuPgGpvcpfS8tz-21" value="" style="endArrow=classic;html=1;rounded=0;entryX=0.999;entryY=0.599;entryDx=0;entryDy=0;entryPerimeter=0;exitX=0.535;exitY=1.004;exitDx=0;exitDy=0;exitPerimeter=0;" edge="1" parent="1" source="77gvNgRuPgGpvcpfS8tz-8" target="77gvNgRuPgGpvcpfS8tz-4">
          <mxGeometry width="50" height="50" relative="1" as="geometry">
            <mxPoint x="920" y="351" as="sourcePoint" />
            <mxPoint x="700" y="250" as="targetPoint" />
            <Array as="points">
              <mxPoint x="1000" y="380" />
            </Array>
          </mxGeometry>
        </mxCell>
        <mxCell id="77gvNgRuPgGpvcpfS8tz-37" value="Formulir Pendaftaran" style="edgeLabel;html=1;align=center;verticalAlign=middle;resizable=0;points=[];" connectable="0" vertex="1" parent="77gvNgRuPgGpvcpfS8tz-21">
          <mxGeometry x="-0.9481" relative="1" as="geometry">
            <mxPoint y="1" as="offset" />
          </mxGeometry>
        </mxCell>
        <mxCell id="77gvNgRuPgGpvcpfS8tz-22" value="" style="endArrow=classic;html=1;rounded=0;entryX=-0.001;entryY=0.586;entryDx=0;entryDy=0;exitX=0.5;exitY=1;exitDx=0;exitDy=0;entryPerimeter=0;" edge="1" parent="1" source="77gvNgRuPgGpvcpfS8tz-11" target="77gvNgRuPgGpvcpfS8tz-12">
          <mxGeometry width="50" height="50" relative="1" as="geometry">
            <mxPoint x="1230" y="340" as="sourcePoint" />
            <mxPoint x="1280" y="290" as="targetPoint" />
            <Array as="points">
              <mxPoint x="1210" y="410" />
            </Array>
          </mxGeometry>
        </mxCell>
        <mxCell id="77gvNgRuPgGpvcpfS8tz-23" value="" style="endArrow=classic;html=1;rounded=0;entryX=0.5;entryY=0;entryDx=0;entryDy=0;" edge="1" parent="1" target="77gvNgRuPgGpvcpfS8tz-10">
          <mxGeometry width="50" height="50" relative="1" as="geometry">
            <mxPoint x="1480" y="430" as="sourcePoint" />
            <mxPoint x="1210" y="450" as="targetPoint" />
            <Array as="points">
              <mxPoint x="1480" y="450" />
              <mxPoint x="1210" y="450" />
            </Array>
          </mxGeometry>
        </mxCell>
        <mxCell id="77gvNgRuPgGpvcpfS8tz-24" value="" style="endArrow=classic;html=1;rounded=0;exitX=0.5;exitY=1;exitDx=0;exitDy=0;entryX=0.541;entryY=0.016;entryDx=0;entryDy=0;entryPerimeter=0;" edge="1" parent="1" source="77gvNgRuPgGpvcpfS8tz-4" target="77gvNgRuPgGpvcpfS8tz-9">
          <mxGeometry width="50" height="50" relative="1" as="geometry">
            <mxPoint x="300" y="380" as="sourcePoint" />
            <mxPoint x="930" y="450" as="targetPoint" />
            <Array as="points">
              <mxPoint x="310" y="450" />
              <mxPoint x="960" y="450" />
            </Array>
          </mxGeometry>
        </mxCell>
        <mxCell id="77gvNgRuPgGpvcpfS8tz-29" value="&lt;font style=&quot;font-size: 14px;&quot;&gt;&lt;b&gt;Sistem_Pendaftaran&lt;/b&gt;&lt;/font&gt;" style="text;html=1;align=center;verticalAlign=middle;resizable=0;points=[];autosize=1;strokeColor=none;fillColor=none;" vertex="1" parent="1">
          <mxGeometry x="140" y="80" width="160" height="30" as="geometry" />
        </mxCell>
        <mxCell id="77gvNgRuPgGpvcpfS8tz-32" value="&lt;font style=&quot;font-size: 14px;&quot;&gt;&lt;b&gt;Staf_Registrar&lt;/b&gt;&lt;/font&gt;" style="text;html=1;align=center;verticalAlign=middle;resizable=0;points=[];autosize=1;strokeColor=none;fillColor=none;" vertex="1" parent="1">
          <mxGeometry x="575" y="210" width="120" height="30" as="geometry" />
        </mxCell>
        <mxCell id="77gvNgRuPgGpvcpfS8tz-35" value="&lt;b&gt;&lt;font style=&quot;font-size: 14px;&quot;&gt;Sistem_Pembayaran&lt;/font&gt;&lt;/b&gt;" style="text;html=1;align=center;verticalAlign=middle;resizable=0;points=[];autosize=1;strokeColor=none;fillColor=none;" vertex="1" parent="1">
          <mxGeometry x="1385" y="340" width="160" height="30" as="geometry" />
        </mxCell>
        <mxCell id="77gvNgRuPgGpvcpfS8tz-36" value="&lt;font style=&quot;font-size: 14px;&quot;&gt;&lt;b&gt;Mahasiswa&lt;/b&gt;&lt;/font&gt;" style="text;html=1;align=center;verticalAlign=middle;resizable=0;points=[];autosize=1;strokeColor=none;fillColor=none;" vertex="1" parent="1">
          <mxGeometry x="1065" y="10" width="100" height="30" as="geometry" />
        </mxCell>
      </root>
    </mxGraphModel>
  </diagram>
</mxfile>
